<?xml version="1.0" ?><svg height="1181" viewBox="0 0 1181 1181" width="1181" xmlns="http://www.w3.org/2000/svg"><defs><style>
      .cls-1 {
        fill-rule: evenodd;
      }

      .cls-2 {
        fill: none;
        stroke: #000;
        stroke-width: 5px;
      }
    </style></defs><path class="cls-1" d="M259,792.957s78.105,9.576,141-20c37.181-17.481,57.612-35.721,57.612-35.721s-37.9-.143-67.612-21.262C347.937,686.08,330,646,330,646l62-4s-41.531-14.731-70-42.987C287.045,564.32,289.755,511,289.755,511l53.954,14.983S317.9,509.973,300,476.049c-30.4-57.622,2.417-128.362,5.741-128.365,0,0,54.689,57.67,122.259,95.374,77.428,43.206,152.985,43.968,152.985,43.968S563.656,387.685,636,343.087c97.187-59.912,177.655,21.078,177.655,21.078s19.517-2.4,45.345-13.08a229.13,229.13,0,0,0,42-22.993s-3.278,21.186-25,45.986c-14.974,17.1-30.872,32.04-30.872,32.04L922,384.075l-66,72.979s3.876,262.512-250,374.305C424.2,911.412,259,792.066,259,792.957Z"/><rect class="cls-2" data-name="Rounded Rectangle 1" height="863" id="Rounded_Rectangle_1" rx="116" ry="116" width="863" x="159" y="159"/></svg>